# xmcd
#
# Track frame offsets:
#	150
#	46073
#	51321
#	53759
#	71659
#	93324
#	113262
#	125337
#	160313
#	177003
#	193431
#	216398
#	255655
#
# Disc length: 3857 seconds
#
# Revision: 0
# Processed by: cddbd v1.5.2PL0 Copyright (c) Steve Scherf et al.
# Submitted via: audiograbber 1.83.01
#
DISCID=b60f0f0d
DTITLE=The Rolling Stones - From The Vault - Hampton Coliseum [Live In 1981] (C
DTITLE=D 2)
DYEAR=2014
DGENRE=Rock
TTITLE0=You Can't Always Get What You Want [live]
TTITLE1=Band Intros [live]
TTITLE2=Happy Birthday Keith [live]
TTITLE3=Little T&A [live]
TTITLE4=Tumbling Dice [live]
TTITLE5=She's So Cold [live]
TTITLE6=Hang Fire [live]
TTITLE7=Miss You [live]
TTITLE8=Honky Tonk Women [live]
TTITLE9=Brown Sugar [live]
TTITLE10=Start Me Up [live]
TTITLE11=Jumping Jack Flash [live]
TTITLE12=(I Can't Get No) Satisfaction [live]
EXTD=
EXTT0=
EXTT1=
EXTT2=
EXTT3=
EXTT4=
EXTT5=
EXTT6=
EXTT7=
EXTT8=
EXTT9=
EXTT10=
EXTT11=
EXTT12=
PLAYORDER=
